HIERARCHY
ROOT Hips
{
	OFFSET -0.001795 -0.223333 0.028219
	CHANNELS 6 Xposition Yposition Zposition Zrotation Yrotation Xrotation 
	JOINT LeftUpLeg
	{
		OFFSET 0.069520 -0.091406 -0.006815
		CHANNELS 3 Zrotation Yrotation Xrotation
		JOINT LeftLeg
		{
			OFFSET 0.034277 -0.375199 -0.004496
			CHANNELS 3 Zrotation Yrotation Xrotation
			JOINT LeftFoot
			{
				OFFSET -0.013596 -0.397961 -0.043693
				CHANNELS 3 Zrotation Yrotation Xrotation
				JOINT LeftToe
				{
					OFFSET 0.026358 -0.055791 0.119288
					CHANNELS 3 Zrotation Yrotation Xrotation
					End Site
					{
						OFFSET 0.000000 0.000000 0.000000
					}
				}
			}
		}
	}
	JOINT RightUpLeg
	{
		OFFSET -0.067670 -0.090522 -0.004320
		CHANNELS 3 Zrotation Yrotation Xrotation
		JOINT RightLeg
		{
			OFFSET -0.038290 -0.382569 -0.008850
			CHANNELS 3 Zrotation Yrotation Xrotation
			JOINT RightFoot
			{
				OFFSET 0.015774 -0.398415 -0.042312
				CHANNELS 3 Zrotation Yrotation Xrotation
				JOINT RightToe
				{
					OFFSET -0.025372 -0.048144 0.123348
					CHANNELS 3 Zrotation Yrotation Xrotation
					End Site
					{
						OFFSET 0.000000 0.000000 0.000000
					}
				}
			}
		}
	}
	JOINT Spine
	{
		OFFSET -0.002533 0.108963 -0.026696
		CHANNELS 3 Zrotation Yrotation Xrotation
		JOINT Spine1
		{
			OFFSET 0.005487 0.135180 0.001092
			CHANNELS 3 Zrotation Yrotation Xrotation
			JOINT Spine2
			{
				OFFSET 0.001457 0.052922 0.025425
				CHANNELS 3 Zrotation Yrotation Xrotation
				JOINT Neck
				{
					OFFSET -0.002778 0.213870 -0.042857
					CHANNELS 3 Zrotation Yrotation Xrotation
					JOINT Head
					{
						OFFSET 0.005152 0.064970 0.051349
						CHANNELS 3 Zrotation Yrotation Xrotation
						End Site
						{
							OFFSET 0.000000 0.000000 0.000000
						}
					}
				}
				JOINT LeftShoulder
				{
					OFFSET 0.078845 0.121749 -0.034090
					CHANNELS 3 Zrotation Yrotation Xrotation
					JOINT LeftArm
					{
						OFFSET 0.090977 0.030469 -0.008868
						CHANNELS 3 Zrotation Yrotation Xrotation
						JOINT LeftForeArm
						{
							OFFSET 0.259612 -0.012772 -0.027456
							CHANNELS 3 Zrotation Yrotation Xrotation
							JOINT LeftHand
							{
								OFFSET 0.249234 0.008986 -0.001171
								CHANNELS 3 Zrotation Yrotation Xrotation
								End Site
								{
									OFFSET 0.000000 0.000000 0.000000
								}
							}
						}
					}
				}
				JOINT RightShoulder
				{
					OFFSET -0.081759 0.118833 -0.038615
					CHANNELS 3 Zrotation Yrotation Xrotation
					JOINT RightArm
					{
						OFFSET -0.096012 0.032551 -0.009143
						CHANNELS 3 Zrotation Yrotation Xrotation
						JOINT RightForeArm
						{
							OFFSET -0.253742 -0.013329 -0.021401
							CHANNELS 3 Zrotation Yrotation Xrotation
							JOINT RightHand
							{
								OFFSET -0.255298 0.007772 -0.005559
								CHANNELS 3 Zrotation Yrotation Xrotation
								End Site
								{
									OFFSET 0.000000 0.000000 0.000000
								}
							}
						}
					}
				}
			}
		}
	}
}
MOTION
Frames: 6
Frame Time: 0.050000
0.000000 0.939123 0.000000 -2.192418 5.040091 -4.298855 -2.080597 0.074285 0.551713 -0.575721 -0.732553 18.526299 -2.079005 -7.636410 -4.501522 0.000000 0.000000 0.000000 3.034652 2.072317 -17.214908 1.720673 0.004092 28.168369 -2.001614 -6.061262 3.374072 0.000000 0.000000 0.000000 3.621405 -0.651902 8.817927 -0.957511 0.517941 -1.163193 -2.548313 2.249356 4.660901 6.781030 -2.941276 -13.191243 0.000000 0.000000 0.000000 -29.349536 -5.116602 -1.919207 -42.781077 -2.657331 -3.506956 -9.959705 -30.340555 3.482188 0.000000 0.000000 0.000000 25.970574 -0.504269 -0.931839 51.453758 2.557485 -4.503538 10.727946 28.762103 3.907374 0.000000 0.000000 0.000000 
0.001343 0.941594 0.025558 -2.794117 4.515891 -3.507560 -2.702507 0.198044 1.565230 0.090936 -0.675548 14.731059 -1.050618 -1.321700 1.593493 0.000000 0.000000 0.000000 5.231314 2.224254 -15.994758 0.847169 0.360600 25.316305 -1.691625 -6.184334 6.267887 0.000000 0.000000 0.000000 4.583373 -0.556826 6.795468 -0.344782 0.241167 -1.646225 -3.232769 4.042670 5.585491 7.906371 -3.188426 -15.002553 0.000000 0.000000 0.000000 -28.768720 -4.583040 -2.826755 -43.894018 -0.111999 -4.372725 -10.000573 -29.789825 3.319975 0.000000 0.000000 0.000000 25.724912 -0.857124 -0.537183 52.729581 1.497290 -5.217795 10.927607 30.160673 4.322085 0.000000 0.000000 0.000000 
0.002448 0.937160 0.051869 -2.488210 4.748985 -4.207906 -4.362809 0.395888 2.930220 1.219238 -0.926276 14.402124 0.942515 4.443572 5.591494 0.000000 0.000000 0.000000 5.147515 1.983847 -14.259583 0.994237 0.286096 25.554612 -1.066904 -4.833103 6.321829 0.000000 0.000000 0.000000 5.346648 -0.495330 5.767954 -0.890717 0.498392 -1.551565 -3.904781 3.987155 6.055057 8.028956 -3.472469 -13.935233 0.000000 0.000000 0.000000 -27.667424 -5.912446 -1.873935 -45.925014 0.596595 -4.956643 -6.762764 -24.976989 2.087655 0.000000 0.000000 0.000000 24.632030 0.132984 0.195385 54.408492 1.597468 -5.336800 8.358042 29.123208 3.528075 0.000000 0.000000 0.000000 
0.002799 0.931377 0.075504 -2.516371 6.174835 -5.612141 -4.411644 0.714260 5.731023 0.895376 -0.953324 15.380797 2.625043 6.634302 3.077278 0.000000 0.000000 0.000000 5.863831 1.886798 -12.906953 0.211738 0.433778 28.042230 -1.498256 -5.832819 6.980692 0.000000 0.000000 0.000000 5.013651 -0.493322 6.129487 -0.455253 0.320872 -1.832975 -4.054816 3.314350 7.012493 7.804278 -3.187067 -14.739466 0.000000 0.000000 0.000000 -29.565859 -5.805810 -2.259933 -44.891632 0.817012 -4.892706 -5.759023 -24.292423 1.831736 0.000000 0.000000 0.000000 26.563058 -0.646282 -0.225275 51.991482 1.713594 -5.318383 10.391736 29.241879 4.065846 0.000000 0.000000 0.000000 
0.002193 0.930473 0.093624 -2.630119 6.134463 -7.034785 -3.953632 0.948550 8.221575 0.479002 -0.850020 15.352396 2.973732 7.793608 4.532610 0.000000 0.000000 0.000000 6.302443 1.864867 -12.272386 0.260963 0.401575 31.558326 -1.575252 -6.240204 7.883249 0.000000 0.000000 0.000000 4.289264 -0.474258 6.570473 1.092060 -0.407407 -1.824027 -4.544012 2.714083 8.130071 8.536127 -3.287868 -17.197620 0.000000 0.000000 0.000000 -29.571304 -6.871781 -1.307930 -44.923765 -0.186336 -4.700345 -4.403986 -23.436429 1.532804 0.000000 0.000000 0.000000 28.009034 -0.753738 -0.486604 50.315832 2.187851 -5.111057 10.752580 28.723759 4.023822 0.000000 0.000000 0.000000 
0.000750 0.933166 0.106718 -2.868568 5.112082 -6.981061 -4.066466 1.065258 9.097280 0.544912 -0.879403 16.060559 3.852055 9.254963 4.163670 0.000000 0.000000 0.000000 6.266871 2.355344 -15.674697 1.033044 0.184742 35.945882 -0.903760 -6.643199 14.378784 0.000000 0.000000 0.000000 4.100435 -0.453407 6.453593 0.816352 -0.277995 -1.979365 -3.084904 0.513928 8.737380 6.602479 -2.329033 -17.873777 0.000000 0.000000 0.000000 -28.918350 -6.617236 -0.124569 -46.810875 -1.606911 -4.873285 -3.858856 -25.194983 1.674774 0.000000 0.000000 0.000000 25.766895 0.479234 -0.656995 50.929283 0.929125 -5.386073 13.358671 27.957039 4.353256 0.000000 0.000000 0.000000 
